<svg width="1024" height="1024" viewBox="0 0 1024 1024" fill="none" xmlns="http://www.w3.org/2000/svg">
<path d="M570 28.9999C573.495 29.5205 576.994 30.0029 580.496 30.4726C583 30.9999 583 30.9999 586 32.9999C587.258 33.2474 588.516 33.4949 589.812 33.7499C611.767 38.312 634.658 53.4573 651.867 67.3593C654.08 69.107 654.08 69.107 656.898 70.8789C660.137 73.0933 662.888 75.5072 665.75 78.1874C666.798 79.1632 667.846 80.1384 668.895 81.1132C669.414 81.5974 669.933 82.0816 670.467 82.5805C673.52 85.4078 676.638 88.1634 679.746 90.9296C682.237 93.2179 684.61 95.6063 687 97.9999C692.322 103.007 697.748 107.851 703.438 112.437C709.54 117.367 715.251 122.669 721 128C726.014 132.607 731.075 137.098 736.375 141.375C740.388 144.619 744.224 147.987 748 151.5C752.58 155.756 757.296 159.772 762.164 163.699C765.246 166.2 768.285 168.746 771.312 171.312C771.852 171.77 772.392 172.227 772.948 172.699C775.824 175.14 778.691 177.591 781.551 180.051C782.141 180.558 782.731 181.066 783.339 181.589C784.528 182.611 785.717 183.634 786.905 184.657C790.433 187.685 794.005 190.645 797.625 193.562C801.547 196.742 805.302 200.064 809 203.5C813.58 207.755 818.293 211.773 823.164 215.695C826.256 218.208 829.285 220.786 832.312 223.375C836.804 227.209 841.389 230.89 846.062 234.5C851.747 238.902 857.071 243.588 862.316 248.5C864.61 250.636 866.937 252.707 869.312 254.75C879.618 263.756 886.384 273.533 892.875 285.562C893.608 286.892 893.608 286.892 894.356 288.248C897.37 293.968 898.698 298.532 899 305C899.66 305 900.32 305 901 305C902.655 308.74 903.47 312.209 904.062 316.25C904.328 319.94 904.328 319.94 906 323C906.101 326.032 906.14 329.041 906.133 332.074C906.134 332.991 906.135 333.907 906.136 334.852C906.136 336.798 906.135 338.744 906.13 340.69C906.125 343.657 906.13 346.624 906.137 349.592C906.136 351.482 906.135 353.372 906.133 355.262C906.135 356.146 906.137 357.031 906.139 357.942C906.122 362.409 905.904 366.603 905 371C904.34 371 903.68 371 903 371C903.014 371.913 903.014 371.913 903.027 372.844C902.731 381.615 899.521 388.462 895.816 396.242C894.844 398.335 894.022 400.474 893.188 402.625C885.356 419.967 870.203 434.272 854.757 444.79C852.923 446.053 851.129 447.364 849.332 448.68C846.831 450.471 844.425 451.899 841.562 453.062C838.63 454.286 835.85 455.602 833.062 457.125C829.171 459.126 825.302 459.903 821.004 460.605C819.009 460.805 819.009 460.805 818 462C812.059 463.062 806.044 463.138 800.027 463.098C799.219 463.096 798.41 463.095 797.577 463.093C795.031 463.088 792.484 463.075 789.938 463.062C788.196 463.057 786.454 463.053 784.713 463.049C780.475 463.038 776.238 463.021 772 463C772 462.34 772 461.68 772 461C771.443 460.951 770.886 460.902 770.312 460.852C752.189 459.076 737.119 451.596 723.02 440.394C719.995 437.996 716.912 435.705 713.781 433.449C711.345 431.467 709.208 429.231 707 427C701.643 421.96 696.182 417.095 690.438 412.5C685.703 408.693 681.47 404.568 677.289 400.164C674.995 397.996 672.729 396.561 670 395C668.288 393.38 666.628 391.704 665 390C657.941 382.571 657.941 382.571 649.625 376.687C646.597 374.741 644.373 372.456 641.875 369.883C639.416 367.413 636.804 365.156 634.164 362.883C631.762 360.792 629.414 358.648 627.062 356.5C624.004 353.734 620.914 351.111 617.625 348.625C613.935 345.819 610.515 342.781 607.125 339.625C602.508 335.329 597.76 331.271 592.848 327.312C589.694 324.751 586.594 322.133 583.5 319.5C579.531 316.127 575.54 312.788 571.5 309.5C565.26 304.419 559.129 299.213 553 294C552.273 293.388 551.546 292.775 550.797 292.144C548.331 290.059 545.973 287.971 543.75 285.625C540.199 282.235 536.264 279.556 532.23 276.769C531.494 276.186 530.758 275.602 530 275C530 274.34 530 273.68 530 273C526.601 274.133 525.667 275.556 523.492 278.277C521.334 280.769 518.87 282.819 516.363 284.953C514.086 286.926 511.871 288.956 509.664 291.007C504.789 295.537 499.813 299.797 494.57 303.902C490.489 307.233 486.663 310.831 482.801 314.41C476.764 319.992 470.492 325.29 464.21 330.593C460.023 334.129 455.85 337.683 451.688 341.25C451.093 341.759 450.499 342.268 449.887 342.793C446.844 345.405 443.817 348.032 440.812 350.687C437.644 353.465 434.427 356.181 431.188 358.875C429.817 360.016 429.817 360.016 428.418 361.18C426 363 426 363 423 364C422.328 365.33 421.662 366.664 421 368C419.004 370.043 419.004 370.043 416.562 372.187C415.223 373.365 415.223 373.365 413.855 374.566C410.14 377.733 406.365 380.822 402.574 383.898C397.197 388.288 392.076 392.92 387.013 397.665C381.446 402.88 375.804 407.857 369.844 412.625C366.444 415.465 363.224 418.464 360 421.5C354.208 426.945 348.244 432.075 342 437C341.232 437.614 340.463 438.227 339.672 438.859C319.694 454.646 298.334 464.519 272.5 464.187C271.545 464.187 270.59 464.186 269.605 464.185C263.027 464.145 256.541 463.693 250 463C250 462.34 250 461.68 250 461C249.322 460.963 248.644 460.925 247.945 460.887C230.477 459.653 216.382 451.91 203 441C202.438 440.555 201.876 440.11 201.296 439.652C186.292 427.758 172.382 411.57 165.836 393.312C164.952 390.868 163.906 388.545 162.812 386.187C160.185 380.294 159.892 375.392 160 369C159.34 369 158.68 369 158 369C157.067 360.821 156.814 352.704 156.815 344.475C156.812 342.437 156.794 340.399 156.775 338.361C156.765 330.994 157.128 324.144 159 317C159.66 317 160.32 317 161 317C161.037 316.359 161.075 315.719 161.113 315.059C161.543 309.405 162.549 305.173 165 300C166.04 297.128 167.043 294.245 168.035 291.355C169 289 169 289 171 287C171.672 285.336 172.338 283.669 173 282C173.874 280.557 174.793 279.14 175.75 277.75C177.359 275.405 178.958 273.066 180.48 270.664C183.733 265.554 187.238 260.817 192 257C192.66 257 193.32 257 194 257C194.33 256.01 194.66 255.02 195 254C196.355 252.598 196.355 252.598 198.187 251.062C198.907 250.453 199.626 249.843 200.367 249.215C201.236 248.484 202.105 247.753 203 247C204.087 246.065 205.173 245.129 206.258 244.191C212.544 238.763 218.876 233.402 225.328 228.172C227.223 226.631 229.107 225.078 230.984 223.516C231.959 222.706 232.933 221.897 233.937 221.062C234.813 220.332 235.688 219.601 236.59 218.848C238.683 217.243 240.599 216.064 243 215C243 214.34 243 213.68 243 213C244.487 211.646 246.044 210.369 247.625 209.125C252.208 205.463 256.691 201.716 261.125 197.875C264.922 194.59 268.73 191.387 272.75 188.375C276.041 185.877 278.877 183.157 281.75 180.187C285.886 175.949 290.305 172.351 295.038 168.823C299.481 165.481 303.551 161.852 307.603 158.051C311.782 154.146 316.152 150.534 320.625 146.973C323.044 145.035 323.044 145.035 325.187 142.746C327 141 327 141 329 141C329.33 140.01 329.66 139.02 330 138C331.656 136.522 333.374 135.114 335.125 133.75C338.44 131.112 341.594 128.52 344.5 125.437C347.18 122.655 350.028 120.472 353.187 118.25C358.603 114.419 363.376 110.142 368.199 105.613C370.587 103.386 373.015 101.241 375.5 99.1249C377.602 97.3075 379.253 95.6837 381 93.4999C383.333 90.5835 385.945 88.3202 388.781 85.9023C391.855 83.2665 394.835 80.5288 397.824 77.7968C400 75.9999 400 75.9999 402.477 74.5273C406.081 72.3459 408.942 69.5081 412.012 66.6445C414 64.9999 414 64.9999 416 64.9999C416 64.3399 416 63.6799 416 62.9999C418.12 61.596 420.231 60.3182 422.438 59.0624C427.603 56.0598 432.654 52.9474 437.63 49.6381C444.187 45.2798 450.424 41.3675 458 38.9999C459.052 38.6493 460.104 38.2987 461.188 37.9374C462.116 37.6281 463.044 37.3187 464 36.9999C465.038 36.5282 466.075 36.0564 467.145 35.5703C471.163 33.8335 475.234 32.8648 479.5 31.9374C480.948 31.6149 482.396 31.2907 483.844 30.9648C484.894 30.7287 484.894 30.7287 485.965 30.4877C487.877 30.0295 489.768 29.4881 491.656 28.9414C514.969 22.3779 546.466 23.9552 570 28.9999Z" fill="#585858"/>
<path d="M269.194 525.684C271.365 525.688 273.533 525.664 275.703 525.639C286.543 525.589 296.317 527.089 306.313 531.5C307.306 531.934 308.3 532.369 309.324 532.816C310.207 533.207 311.09 533.598 312 534C313.196 534.474 314.393 534.949 315.625 535.438C323.606 539.132 330.332 543.891 337.039 549.551C339.195 551.334 341.354 553.049 343.586 554.73C344.185 555.182 344.784 555.633 345.401 556.099C346.576 556.979 347.755 557.855 348.937 558.726C350.327 559.771 351.669 560.88 353 562C353 562.66 353 563.32 353 564C353.552 564.233 354.104 564.467 354.672 564.707C357.613 566.34 359.791 568.393 362.25 570.688C365.52 573.719 368.802 576.722 372.188 579.625C375.627 582.609 378.811 585.795 382.008 589.035C384.538 591.531 387.191 593.85 389.887 596.164C392.196 598.17 394.438 600.241 396.688 602.313C400.431 605.706 404.326 608.798 408.375 611.813C413.573 615.7 418.112 619.957 422.627 624.611C426.52 628.598 430.654 632.117 435.016 635.59C438.6 638.484 442.085 641.48 445.563 644.5C446.206 645.058 446.849 645.617 447.512 646.192C451.149 649.359 454.746 652.566 458.313 655.813C461.393 658.609 464.536 661.25 467.813 663.813C472.494 667.495 476.819 671.479 481.154 675.555C485.335 679.46 489.699 683.032 494.27 686.477C494.841 686.979 495.412 687.482 496 688C496 688.66 496 689.32 496 690C496.552 690.245 497.103 690.49 497.672 690.742C504.224 694.282 509.959 699.813 515.125 705.125C519.017 709.105 523.105 713.286 528 716C531.443 715.795 533.274 714.157 535.75 711.875C536.453 711.238 537.155 710.601 537.879 709.945C538.579 709.303 539.279 708.661 540 708C541.225 706.912 542.455 705.829 543.688 704.75C544.341 704.178 544.995 703.605 545.668 703.016C549.159 699.998 552.689 697.027 556.217 694.052C559.214 691.523 562.188 688.974 565.125 686.375C568.145 683.71 571.245 681.16 574.375 678.625C578.873 674.97 583.182 671.157 587.465 667.254C590.998 664.112 594.673 661.157 598.348 658.184C600.787 656.176 603.152 654.114 605.5 652C608.639 649.177 611.844 646.47 615.125 643.813C619.776 640.035 624.342 636.169 628.875 632.25C629.506 631.707 630.136 631.164 630.786 630.605C634.333 627.527 637.702 624.347 641 621C646.741 615.552 652.755 610.617 659.094 605.89C664.067 602.107 668.309 597.815 672.563 593.25C675 591 675 591 677.688 589.938C680.614 588.751 680.637 587.751 682 585C683.461 583.48 683.461 583.48 685.16 582.047C686.097 581.248 686.097 581.248 687.053 580.432C687.716 579.877 688.379 579.322 689.063 578.75C690.43 577.586 691.797 576.422 693.164 575.258C693.826 574.697 694.487 574.137 695.169 573.56C697.454 571.613 699.701 569.626 701.938 567.625C705.265 564.652 708.614 561.706 711.981 558.777C713.37 557.554 714.747 556.316 716.113 555.066C727.223 544.943 745.022 529.971 761 529.813C761.99 529.874 762.98 529.936 764 530C764 529.34 764 528.68 764 528C787.601 520.133 818.088 525.528 840 536C850.221 541.145 858.509 547.403 867 555C868.396 556.167 869.792 557.333 871.188 558.5C885.582 571.285 893.142 586.234 899.832 603.918C900.522 605.739 901.223 607.556 901.949 609.363C903.625 613.574 904.45 617.511 905 622C905.33 622.33 905.66 622.66 906 623C906.114 626.131 906.164 629.239 906.168 632.371C906.171 633.323 906.175 634.274 906.178 635.254C906.183 637.278 906.186 639.301 906.185 641.325C906.188 644.393 906.206 647.461 906.225 650.529C906.228 652.497 906.23 654.466 906.231 656.434C906.238 657.341 906.245 658.249 906.252 659.184C906.215 669.833 904.043 680.341 899.063 689.813C896.808 694.107 895.425 698.602 893.949 703.211C892.884 706.341 891.602 709.116 890 712C889.34 712 888.68 712 888 712C887.753 712.545 887.505 713.091 887.25 713.652C880.228 726.84 868.724 738.059 857 747C847.871 754.32 839.007 761.943 830.156 769.594C823.233 775.578 816.294 781.467 809 787C803.618 791.2 798.508 795.705 793.473 800.313C789.137 804.277 784.891 807.739 780 811C778.855 812.104 777.731 813.232 776.625 814.375C773.693 817.396 770.625 819.874 767.227 822.348C759.978 827.727 753.21 833.665 746.543 839.738C742.968 842.918 739.258 845.92 735.543 848.934C730.436 853.084 725.651 857.342 721 862C709.362 873.287 709.362 873.287 703.25 877.25C695.75 882.234 689.502 888.848 683.027 895.061C660.062 917.025 660.062 917.025 647.606 924.422C644.839 926.098 642.283 927.945 639.688 929.875C633.6 934.328 627.846 938.24 620.882 941.163C617.718 942.57 614.718 944.267 611.688 945.938C597.126 953.801 597.126 953.801 589.938 954.563C586.806 954.91 584.774 955.344 581.902 956.391C564.928 962.168 547.168 962.367 529.438 962.313C528.011 962.309 528.011 962.309 526.556 962.305C523.807 962.292 521.058 962.269 518.309 962.238C517.079 962.227 517.079 962.227 515.824 962.215C501.991 961.991 501.991 961.991 500 960C498.381 959.717 496.754 959.476 495.125 959.25C489.421 958.341 483.892 957.035 478.313 955.563C477.53 955.357 476.747 955.152 475.94 954.94C468.388 952.915 461.037 950.753 454.117 947.063C452.356 946.179 450.548 945.391 448.731 944.629C434.612 938.635 421.102 929.69 409.691 919.48C407.584 917.636 405.389 915.919 403.188 914.188C397.927 909.999 392.951 905.548 388 901C386.478 899.602 384.955 898.204 383.433 896.806C382.396 895.853 381.359 894.901 380.323 893.948C376.946 890.849 373.525 887.811 370.059 884.813C367.501 882.561 365.005 880.247 362.5 877.938C358.864 874.62 355.197 871.563 351.215 868.68C347.689 866.006 344.352 863.109 340.989 860.236C337.535 857.289 334.041 854.406 330.5 851.563C325.757 847.709 321.296 843.615 316.836 839.444C312.637 835.537 308.285 831.874 303.816 828.277C296.651 822.483 289.626 816.517 282.813 810.313C278.842 806.701 274.72 803.354 270.504 800.035C267.898 797.917 265.417 795.702 262.938 793.438C258.468 789.366 253.803 785.666 249 782C242.948 777.288 237.165 772.384 231.496 767.219C227.469 763.639 223.229 760.337 219 757C212.281 751.665 205.84 746.123 199.591 740.249C197.071 737.885 194.535 735.595 191.852 733.418C176.18 720.129 163.096 695.243 159.44 675.345C159.152 673.812 158.838 672.285 158.492 670.764C156.824 662.932 156.694 655.214 156.739 647.248C156.75 645.004 156.739 642.76 156.727 640.516C156.706 621.643 161.495 604.805 170 588C170.599 586.803 170.599 586.803 171.211 585.582C178.99 570.833 190.525 557.757 204 548C204.6 547.563 205.2 547.125 205.818 546.675C218.261 537.665 229.954 531.685 245 528C246.032 527.73 246.032 527.73 247.084 527.454C254.413 525.729 261.71 525.662 269.194 525.684Z" fill="#585858"/>
<path d="M269.194 525.684C271.365 525.687 273.533 525.664 275.703 525.639C286.543 525.589 296.317 527.089 306.313 531.5C307.306 531.934 308.3 532.369 309.324 532.816C310.207 533.207 311.09 533.598 312 534C313.196 534.474 314.393 534.949 315.625 535.437C323.606 539.132 330.332 543.891 337.039 549.551C339.195 551.334 341.354 553.049 343.586 554.73C344.185 555.182 344.784 555.633 345.401 556.099C346.576 556.979 347.755 557.855 348.937 558.726C350.327 559.771 351.669 560.88 353 562C353 562.66 353 563.32 353 564C353.552 564.233 354.104 564.467 354.672 564.707C357.613 566.34 359.791 568.393 362.25 570.687C365.52 573.719 368.802 576.722 372.188 579.625C375.627 582.609 378.811 585.795 382.008 589.035C384.538 591.531 387.191 593.85 389.887 596.164C392.196 598.17 394.438 600.241 396.688 602.312C400.431 605.706 404.326 608.798 408.375 611.812C413.573 615.7 418.112 619.957 422.627 624.611C426.52 628.598 430.654 632.117 435.016 635.59C438.6 638.484 442.085 641.48 445.563 644.5C446.206 645.058 446.849 645.617 447.512 646.192C451.149 649.359 454.746 652.565 458.313 655.812C461.393 658.609 464.536 661.25 467.813 663.812C472.494 667.495 476.819 671.479 481.154 675.555C485.335 679.46 489.699 683.032 494.27 686.477C494.841 686.979 495.412 687.482 496 688C496 688.66 496 689.32 496 690C496.552 690.245 497.103 690.49 497.672 690.742C505.052 694.73 511.222 701.101 517.02 707.078C521.277 711.209 526.072 714.714 531 718C530.368 718.51 529.737 719.021 529.086 719.547C519.89 727.02 510.839 734.669 502 742.562C498.326 745.788 494.516 748.836 490.688 751.875C490.076 752.364 489.464 752.854 488.834 753.358C486.238 755.4 484.158 756.947 481 758C481 758.66 481 759.32 481 760C480.361 760.103 479.721 760.206 479.063 760.312C478.042 760.653 478.042 760.653 477 761C476.67 761.99 476.34 762.98 476 764C474.574 765.254 474.574 765.254 472.688 766.562C468.267 769.732 464.148 773.192 460.038 776.748C456.216 780 456.216 780 454 780C454 780.66 454 781.32 454 782C451.973 783.723 449.935 785.338 447.813 786.937C442.314 791.164 436.957 795.508 431.687 800.016C428.334 802.88 424.938 805.676 421.5 808.437C417.307 811.837 413.362 815.426 409.438 819.125C405.034 823.265 400.574 826.87 395.531 830.227C391.978 832.716 388.699 835.507 385.393 838.309C382.464 840.789 379.497 843.184 376.438 845.5C372.922 848.183 369.722 851.096 366.5 854.125C362.529 857.8 358.742 860.612 353.875 862.965C351.875 864.069 350.532 865.319 349 867C347.784 865.965 347.784 865.965 346.543 864.91C345.425 863.961 344.306 863.011 343.188 862.062C342.596 861.56 342.004 861.058 341.395 860.541C337.801 857.499 334.171 854.512 330.5 851.562C325.757 847.709 321.296 843.615 316.836 839.444C312.637 835.537 308.285 831.874 303.816 828.277C296.651 822.483 289.626 816.517 282.813 810.312C278.842 806.701 274.72 803.354 270.504 800.035C267.898 797.917 265.417 795.702 262.938 793.437C258.468 789.366 253.803 785.666 249 782C242.948 777.288 237.165 772.384 231.496 767.219C227.469 763.639 223.229 760.337 219 757C212.281 751.665 205.84 746.123 199.591 740.249C197.071 737.885 194.535 735.595 191.852 733.418C176.18 720.129 163.096 695.243 159.44 675.345C159.152 673.812 158.838 672.285 158.492 670.764C156.824 662.932 156.694 655.214 156.739 647.248C156.75 645.004 156.739 642.76 156.727 640.516C156.706 621.643 161.495 604.805 170 588C170.599 586.803 170.599 586.803 171.211 585.582C178.99 570.833 190.525 557.757 204 548C204.6 547.563 205.2 547.125 205.818 546.675C218.261 537.665 229.954 531.685 245 528C246.032 527.73 246.032 527.73 247.084 527.454C254.413 525.729 261.71 525.662 269.194 525.684Z" fill="#7E7E7E"/>
<path d="M350 121C351.038 122.063 351.038 122.063 352.098 123.148C355.082 126.13 358.23 128.887 361.437 131.625C362.04 132.141 362.643 132.658 363.263 133.19C368.163 137.357 373.181 141.356 378.293 145.258C381.798 147.957 384.896 150.855 388 154C389.709 155.462 391.438 156.899 393.187 158.312C394.154 159.096 395.121 159.88 396.117 160.688C398.675 162.739 401.242 164.777 403.812 166.812C411.831 173.207 419.569 179.955 427.25 186.75C430.033 189.202 432.898 191.518 435.812 193.812C439.434 196.679 442.865 199.671 446.25 202.812C450.962 207.157 455.878 211.113 460.942 215.03C465.04 218.211 468.941 221.542 472.785 225.027C478.331 229.967 484.063 234.731 490.188 238.938C491.116 239.618 492.044 240.299 493 241C493 241.66 493 242.32 493 243C493.535 243.227 494.07 243.454 494.621 243.688C497.757 245.417 500.359 247.678 503.062 250C505.967 252.477 508.817 254.878 512 257C512 257.66 512 258.32 512 259C513.65 259.66 515.3 260.32 517 261C517 261.66 517 262.32 517 263C517.572 263.255 518.145 263.51 518.734 263.773C521.242 265.131 523.133 266.72 525.25 268.625C526.31 269.572 526.31 269.572 527.391 270.539C527.922 271.021 528.453 271.503 529 272C524.932 277.031 520.559 281.333 515.707 285.609C512.936 288.057 510.218 290.556 507.5 293.062C504.109 296.154 500.673 299.107 497.062 301.938C492.074 305.855 487.449 310.102 482.801 314.41C476.764 319.992 470.492 325.29 464.21 330.593C460.023 334.129 455.85 337.683 451.688 341.25C450.796 342.014 450.796 342.014 449.887 342.793C446.844 345.405 443.817 348.032 440.812 350.688C437.644 353.465 434.427 356.181 431.188 358.875C430.274 359.636 429.36 360.396 428.418 361.18C426 363 426 363 423 364C422.328 365.33 421.662 366.664 421 368C419.004 370.043 419.004 370.043 416.562 372.188C415.223 373.365 415.223 373.365 413.855 374.566C410.14 377.733 406.365 380.822 402.574 383.898C397.197 388.288 392.076 392.92 387.013 397.665C381.446 402.88 375.804 407.857 369.844 412.625C366.444 415.465 363.224 418.464 360 421.5C354.208 426.945 348.244 432.075 342 437C341.232 437.614 340.463 438.227 339.672 438.859C319.694 454.646 298.334 464.519 272.5 464.188C271.545 464.187 270.59 464.186 269.605 464.186C263.027 464.145 256.541 463.693 250 463C250 462.34 250 461.68 250 461C249.322 460.963 248.644 460.925 247.945 460.887C230.477 459.653 216.382 451.91 203 441C202.438 440.555 201.876 440.111 201.296 439.652C186.292 427.758 172.382 411.57 165.836 393.312C164.952 390.868 163.906 388.545 162.812 386.188C160.185 380.294 159.892 375.392 160 369C159.34 369 158.68 369 158 369C157.067 360.821 156.814 352.704 156.815 344.475C156.812 342.437 156.794 340.399 156.775 338.361C156.765 330.994 157.128 324.144 159 317C159.66 317 160.32 317 161 317C161.037 316.359 161.075 315.719 161.113 315.059C161.543 309.405 162.549 305.173 165 300C166.04 297.128 167.043 294.245 168.035 291.355C169 289 169 289 171 287C171.672 285.336 172.338 283.669 173 282C173.874 280.557 174.793 279.14 175.75 277.75C177.359 275.405 178.958 273.066 180.48 270.664C183.733 265.554 187.238 260.817 192 257C192.66 257 193.32 257 194 257C194.33 256.01 194.66 255.02 195 254C196.355 252.598 196.355 252.598 198.187 251.062C198.907 250.453 199.626 249.843 200.367 249.215C201.236 248.484 202.105 247.753 203 247C204.087 246.065 205.173 245.129 206.258 244.191C212.544 238.764 218.876 233.402 225.328 228.172C227.223 226.632 229.107 225.078 230.984 223.516C231.959 222.706 232.933 221.897 233.937 221.062C234.813 220.332 235.688 219.601 236.59 218.848C238.683 217.243 240.599 216.064 243 215C243 214.34 243 213.68 243 213C244.487 211.646 246.044 210.369 247.625 209.125C252.208 205.463 256.691 201.716 261.125 197.875C264.922 194.59 268.73 191.387 272.75 188.375C276.041 185.877 278.877 183.157 281.75 180.188C285.886 175.949 290.305 172.351 295.038 168.823C299.481 165.481 303.551 161.852 307.603 158.051C311.782 154.146 316.152 150.534 320.625 146.973C323.044 145.035 323.044 145.035 325.187 142.746C327 141 327 141 329 141C329.33 140.01 329.66 139.02 330 138C331.656 136.522 333.374 135.114 335.125 133.75C339.241 130.474 343.045 127.131 346.66 123.312C348 122 348 122 350 121Z" fill="#7E7E7E"/>
</svg>
